<svg xmlns="http://www.w3.org/2000/svg" width="160.92" height="17.376" viewBox="0 0 160.92 17.376"><path data-name="パス 10" d="M7.272.288a9.333 9.333 0 013.876.744 5.758 5.758 0 012.532 2.112 5.818 5.818 0 01.888 3.24 5.834 5.834 0 01-.888 3.228 5.656 5.656 0 01-2.532 2.112 9.466 9.466 0 01-3.876.732H3.888v4.632H0V.288zm-.216 9a4.083 4.083 0 002.664-.756 2.633 2.633 0 00.912-2.148 2.661 2.661 0 00-.912-2.172 4.083 4.083 0 00-2.664-.756H3.888v5.832zm19.08 8.088a9.806 9.806 0 01-4.716-1.128 8.372 8.372 0 01-3.288-3.108 8.485 8.485 0 01-1.188-4.452 8.485 8.485 0 011.188-4.452 8.372 8.372 0 013.288-3.108A9.806 9.806 0 0126.136 0a9.736 9.736 0 014.7 1.128 8.48 8.48 0 013.288 3.108 8.42 8.42 0 011.2 4.452 8.42 8.42 0 01-1.2 4.452 8.48 8.48 0 01-3.284 3.108 9.736 9.736 0 01-4.704 1.128zm0-3.312a5.331 5.331 0 002.688-.684 4.908 4.908 0 001.884-1.908 5.609 5.609 0 00.684-2.784 5.609 5.609 0 00-.684-2.784 4.908 4.908 0 00-1.884-1.908 5.331 5.331 0 00-2.688-.684 5.331 5.331 0 00-2.688.684 4.908 4.908 0 00-1.888 1.908 5.609 5.609 0 00-.68 2.784 5.609 5.609 0 00.68 2.784 4.908 4.908 0 001.884 1.908 5.331 5.331 0 002.692.684zM54.096.288v16.8h-3.192l-8.376-10.2v10.2h-3.84V.288h3.216l8.356 10.2V.288zm11.64 0h7.632a10.726 10.726 0 014.836 1.044 7.817 7.817 0 013.264 2.94 8.269 8.269 0 011.164 4.416 8.269 8.269 0 01-1.164 4.416 7.817 7.817 0 01-3.264 2.94 10.726 10.726 0 01-4.836 1.044h-7.632zm7.44 13.608a5.646 5.646 0 004.02-1.4 4.959 4.959 0 001.5-3.8 4.959 4.959 0 00-1.5-3.8 5.646 5.646 0 00-4.02-1.4h-3.552v10.4zM99 13.968v3.12H85.992V.288h12.7v3.12H89.86v3.648h7.8v3.024h-7.8v3.888zm9.048 3.408a13.746 13.746 0 01-3.852-.54 9.034 9.034 0 01-2.988-1.4l1.32-2.928a8.957 8.957 0 002.568 1.272 9.646 9.646 0 002.976.48 4.754 4.754 0 002.448-.492 1.486 1.486 0 00.792-1.308 1.25 1.25 0 00-.468-1 3.548 3.548 0 00-1.2-.636q-.732-.24-1.98-.528a27.371 27.371 0 01-3.144-.908 5.108 5.108 0 01-2.1-1.464 3.954 3.954 0 01-.876-2.688 4.676 4.676 0 01.792-2.652A5.328 5.328 0 01104.724.7a9.744 9.744 0 013.9-.7 12.914 12.914 0 013.144.384 9.288 9.288 0 012.692 1.104l-1.2 2.952a9.368 9.368 0 00-4.656-1.32 4.366 4.366 0 00-2.412.528 1.612 1.612 0 00-.78 1.392 1.361 1.361 0 00.9 1.284 14.131 14.131 0 002.748.828 27.371 27.371 0 013.144.912 5.206 5.206 0 012.1 1.44 3.861 3.861 0 01.876 2.664 4.587 4.587 0 01-.8 2.628 5.4 5.4 0 01-2.42 1.884 9.833 9.833 0 01-3.912.696zM118.272.288h3.888v16.8h-3.888zm19.656 8.136h3.552v6.816a10.148 10.148 0 01-3.168 1.584 12.3 12.3 0 01-3.624.552 9.821 9.821 0 01-4.7-1.116 8.308 8.308 0 01-3.276-3.1 8.53 8.53 0 01-1.192-4.472 8.53 8.53 0 011.188-4.476 8.267 8.267 0 013.3-3.1A10.013 10.013 0 01134.76 0a10.4 10.4 0 014.008.744 7.942 7.942 0 013.024 2.16l-2.5 2.3a5.773 5.773 0 00-4.344-1.9 5.929 5.929 0 00-2.856.672 4.821 4.821 0 00-1.944 1.9 5.58 5.58 0 00-.688 2.812 5.532 5.532 0 00.7 2.784 4.923 4.923 0 001.932 1.908 5.726 5.726 0 002.82.684 6.3 6.3 0 003.024-.72zM160.92.288v16.8h-3.192l-8.376-10.2v10.2h-3.84V.288h3.216l8.352 10.2V.288z" fill="#fff"/></svg>